<svg id="Layer_1" data-name="Layer 1" xmlns="http://www.w3.org/2000/svg" viewBox="0 0 173.05 65.5"><defs><style>
                                                                                                             .cls-1 {
                                                                                                                 fill: #005a78;
                                                                                                             }

                                                                                                             .cls-2 {
                                                                                                                 fill: none;
                                                                                                                 stroke: #005a78;
                                                                                                                 stroke-width: 0.99px;
                                                                                                             }

                                                                                                             .cls-3 {
                                                                                                                 fill: #fff;
                                                                                                             }
</style></defs>
<title>ab-seal-horizontal-sm</title>
<path class="cls-1" d="M7173.2,7231.39h103.89a9.7,9.7,0,0,0,10-9.43v-46.62a9.7,9.7,0,0,0-10-9.43H7173.2" transform="translate(-7113.99 -7165.89)" />
<path class="cls-2" d="M7226.66,7230.91H7124.29a9.56,9.56,0,0,1-9.81-9.29v-45.94a9.56,9.56,0,0,1,9.81-9.29h102.36" transform="translate(-7113.99 -7165.89)" />
<polygon class="cls-1" points="40.78 39.7 19.48 39.7 18.71 42.25 24.39 42.25 25.47 45.76 34.8 45.76 35.88 42.25 41.56 42.25 40.78 39.7" />
<path class="cls-1" d="M7137,7191.3a5,5,0,0,0,1.12,7l5.1,3.7a1.26,1.26,0,0,1,.28,1.76l.77.56,2.69-3.72a5,5,0,0,0,1-2.94,5.06,5.06,0,0,0-.07-.8,5,5,0,0,0-2-3.28l-5.1-3.71a1.26,1.26,0,0,1-.51-.82,1.77,1.77,0,0,1,0-.2,1.23,1.23,0,0,1,.24-.73h0l-.77-.56-2.69,3.72" transform="translate(-7113.99 -7165.89)" />
<path class="cls-1" d="M7140,7176.41a7.25,7.25,0,0,0-1.39,4.27,7.5,7.5,0,0,0,.09,1.16,7.26,7.26,0,0,0,2.93,4.76l6.41,4.64a3.89,3.89,0,0,1,1.57,2.55,4,4,0,0,1,0,.62,3.88,3.88,0,0,1-.75,2.29h0l.61.45,5-7A7.3,7.3,0,0,0,7153,7180l-7.74-5.62a2.26,2.26,0,0,1-.5-3.15l-.61-.44Z" transform="translate(-7113.99 -7165.89)" />
<path class="cls-1" d="M7126.94,7213.78h5.84a4.55,4.55,0,0,1,3.29,1.11,2.89,2.89,0,0,1,.86,2.14v0a2.93,2.93,0,0,1-1.65,2.71,3.07,3.07,0,0,1,2.35,3.09v0c0,2.3-1.87,3.45-4.7,3.45h-6Zm5.24,5.08c1.22,0,2-.4,2-1.33v0c0-.83-.65-1.29-1.81-1.29h-2.73v2.66Zm.74,5.06c1.22,0,2-.43,2-1.36v0c0-.84-.63-1.36-2-1.36h-3.2v2.76Z" transform="translate(-7113.99 -7165.89)" />
<path class="cls-1" d="M7138.82,7213.78h5.83a4.54,4.54,0,0,1,3.29,1.11,2.89,2.89,0,0,1,.86,2.14v0a2.92,2.92,0,0,1-1.65,2.71,3.07,3.07,0,0,1,2.35,3.09v0c0,2.3-1.87,3.45-4.7,3.45h-6Zm5.24,5.08c1.22,0,2-.4,2-1.33v0c0-.83-.65-1.29-1.81-1.29h-2.73v2.66Zm.74,5.06c1.22,0,2-.43,2-1.36v0c0-.84-.63-1.36-2-1.36h-3.2v2.76Z" transform="translate(-7113.99 -7165.89)" />
<path class="cls-1" d="M7150.71,7213.78h5.83a4.56,4.56,0,0,1,3.29,1.11,2.89,2.89,0,0,1,.86,2.14v0a2.92,2.92,0,0,1-1.65,2.71,3.07,3.07,0,0,1,2.35,3.09v0c0,2.3-1.87,3.45-4.7,3.45h-6Zm5.24,5.08c1.22,0,2-.4,2-1.33v0c0-.83-.65-1.29-1.81-1.29h-2.73v2.66Zm.74,5.06c1.22,0,2-.43,2-1.36v0c0-.84-.63-1.36-2-1.36h-3.2v2.76Z" transform="translate(-7113.99 -7165.89)" />
<path class="cls-3" d="M7192,7196.83l-1-2.45h-4.62l-1,2.45H7183l4.68-11h2.22l4.68,11Zm-3.31-8.11-1.45,3.54h2.9Z" transform="translate(-7113.99 -7165.89)" />
<path class="cls-3" d="M7204.07,7195.88a5.22,5.22,0,0,1-1,.62,5.16,5.16,0,0,1-1.18.39,7.11,7.11,0,0,1-1.44.13,5.66,5.66,0,0,1-2.23-.44,5.39,5.39,0,0,1-2.95-3,5.75,5.75,0,0,1-.42-2.2v0a5.7,5.7,0,0,1,.42-2.19,5.64,5.64,0,0,1,1.17-1.79,5.42,5.42,0,0,1,1.79-1.22,5.84,5.84,0,0,1,2.31-.44,7.23,7.23,0,0,1,1.4.13,5.85,5.85,0,0,1,1.15.34,5,5,0,0,1,1,.53,6.46,6.46,0,0,1,.81.69l-1.53,1.76a5.75,5.75,0,0,0-1.3-.9,3.32,3.32,0,0,0-1.49-.33,3,3,0,0,0-2.28,1,3.41,3.41,0,0,0-.66,1.08,3.68,3.68,0,0,0-.23,1.32v0a3.74,3.74,0,0,0,.23,1.33,3.47,3.47,0,0,0,.65,1.09,3,3,0,0,0,2.29,1,3.34,3.34,0,0,0,1.58-.34,6.15,6.15,0,0,0,1.29-.94l1.53,1.54A7.86,7.86,0,0,1,7204.07,7195.88Z" transform="translate(-7113.99 -7165.89)" />
<path class="cls-3" d="M7214.7,7195.88a5.22,5.22,0,0,1-1,.62,5.16,5.16,0,0,1-1.18.39,7.11,7.11,0,0,1-1.44.13,5.66,5.66,0,0,1-2.23-.44,5.38,5.38,0,0,1-2.95-3,5.76,5.76,0,0,1-.42-2.2v0a5.71,5.71,0,0,1,.42-2.19,5.64,5.64,0,0,1,1.17-1.79,5.43,5.43,0,0,1,1.79-1.22,5.84,5.84,0,0,1,2.31-.44,7.24,7.24,0,0,1,1.4.13,5.85,5.85,0,0,1,1.15.34,5,5,0,0,1,1,.53,6.46,6.46,0,0,1,.81.69l-1.53,1.76a5.75,5.75,0,0,0-1.3-.9,3.32,3.32,0,0,0-1.49-.33,3,3,0,0,0-1.27.27,3,3,0,0,0-1,.73,3.42,3.42,0,0,0-.66,1.08,3.68,3.68,0,0,0-.23,1.32v0a3.74,3.74,0,0,0,.23,1.33,3.47,3.47,0,0,0,.65,1.09,3,3,0,0,0,2.29,1,3.34,3.34,0,0,0,1.58-.34,6.15,6.15,0,0,0,1.29-.94l1.53,1.54A7.86,7.86,0,0,1,7214.7,7195.88Z" transform="translate(-7113.99 -7165.89)" />
<path class="cls-3" d="M7223.23,7196.83l-2.34-3.5H7219v3.5h-2.4v-10.92h5a4.45,4.45,0,0,1,3,1,3.34,3.34,0,0,1,1.08,2.65v0a3.42,3.42,0,0,1-.65,2.16,3.75,3.75,0,0,1-1.69,1.22l2.67,3.9Zm0-7.19a1.39,1.39,0,0,0-.5-1.17,2.21,2.21,0,0,0-1.39-.39H7219v3.14h2.43a2,2,0,0,0,1.37-.42,1.43,1.43,0,0,0,.48-1.12Z" transform="translate(-7113.99 -7165.89)" />
<path class="cls-3" d="M7227,7196.83v-10.92h8.22V7188h-5.85v2.22h5.15v2.14h-5.15v2.29h5.93v2.14Z" transform="translate(-7113.99 -7165.89)" />
<path class="cls-3" d="M7246.2,7193.52a5.1,5.1,0,0,1-1.19,1.73,5.64,5.64,0,0,1-1.84,1.15,6.35,6.35,0,0,1-2.35.42h-4.26v-10.92h4.26a6.45,6.45,0,0,1,2.35.41,5.54,5.54,0,0,1,1.84,1.15,5.12,5.12,0,0,1,1.19,1.72,5.42,5.42,0,0,1,.42,2.15v0A5.47,5.47,0,0,1,7246.2,7193.52Zm-2.09-2.15a3.56,3.56,0,0,0-.24-1.33,3.11,3.11,0,0,0-.67-1,3,3,0,0,0-1-.68,3.6,3.6,0,0,0-1.34-.24H7239v6.58h1.86a3.71,3.71,0,0,0,1.34-.23,2.89,2.89,0,0,0,1-.67,3.14,3.14,0,0,0,.67-1,3.48,3.48,0,0,0,.24-1.33Z" transform="translate(-7113.99 -7165.89)" />
<path class="cls-3" d="M7248,7196.83v-10.92h2.4v10.92Z" transform="translate(-7113.99 -7165.89)" />
<path class="cls-3" d="M7257.17,7188.13v8.71h-2.4v-8.71h-3.32v-2.22h9v2.22Z" transform="translate(-7113.99 -7165.89)" />
<path class="cls-3" d="M7261.44,7196.83v-10.92h8.22V7188h-5.85v2.22H7269v2.14h-5.15v2.29h5.93v2.14Z" transform="translate(-7113.99 -7165.89)" />
<path class="cls-3" d="M7280.65,7193.52a5.1,5.1,0,0,1-1.19,1.73,5.64,5.64,0,0,1-1.84,1.15,6.35,6.35,0,0,1-2.35.42H7271v-10.92h4.26a6.45,6.45,0,0,1,2.35.41,5.54,5.54,0,0,1,1.84,1.15,5.12,5.12,0,0,1,1.19,1.72,5.42,5.42,0,0,1,.42,2.15v0A5.47,5.47,0,0,1,7280.65,7193.52Zm-2.09-2.15a3.56,3.56,0,0,0-.24-1.33,3.11,3.11,0,0,0-.67-1,3,3,0,0,0-1-.68,3.6,3.6,0,0,0-1.34-.24h-1.86v6.58h1.86a3.71,3.71,0,0,0,1.34-.23,2.89,2.89,0,0,0,1-.67,3.14,3.14,0,0,0,.67-1,3.48,3.48,0,0,0,.24-1.33Z" transform="translate(-7113.99 -7165.89)" />
<path class="cls-3" d="M7192.89,7212.83a2.54,2.54,0,0,1-.83.94,3.86,3.86,0,0,1-1.29.56,7,7,0,0,1-1.67.19h-5.19v-10.92H7189a4.12,4.12,0,0,1,2.64.76,2.5,2.5,0,0,1,1,2.06v0a2.68,2.68,0,0,1-.12.83,2.6,2.6,0,0,1-.31.65,2.49,2.49,0,0,1-.45.51,3,3,0,0,1-.55.37,3.68,3.68,0,0,1,1.49,1,2.5,2.5,0,0,1,.54,1.71v0A2.83,2.83,0,0,1,7192.89,7212.83Zm-2.69-6a1,1,0,0,0-.41-.83,2,2,0,0,0-1.17-.29h-2.37V7208h2.22a2.51,2.51,0,0,0,1.26-.27.94.94,0,0,0,.47-.88Zm.61,4.37a1,1,0,0,0-.42-.87,2.27,2.27,0,0,0-1.36-.32h-2.78v2.4h2.86a2.3,2.3,0,0,0,1.25-.29,1,1,0,0,0,.45-.9Z" transform="translate(-7113.99 -7165.89)" />
<path class="cls-3" d="M7203.3,7211.93a4.08,4.08,0,0,1-1,1.54,3.94,3.94,0,0,1-1.51.92,6.09,6.09,0,0,1-2,.3,4.33,4.33,0,0,1-4.73-4.85v-6.24h2.4v6.18a2.89,2.89,0,0,0,.62,2,2.24,2.24,0,0,0,1.73.68,2.28,2.28,0,0,0,1.73-.66,2.75,2.75,0,0,0,.62-2v-6.26h2.4v6.16A6.31,6.31,0,0,1,7203.3,7211.93Z" transform="translate(-7113.99 -7165.89)" />
<path class="cls-3" d="M7212.79,7212.73a3,3,0,0,1-.82,1.06,3.7,3.7,0,0,1-1.26.66,5.48,5.48,0,0,1-1.62.23,7.23,7.23,0,0,1-2.45-.43,6.47,6.47,0,0,1-2.18-1.32l1.42-1.7a7.13,7.13,0,0,0,1.54,1,4.09,4.09,0,0,0,1.72.36,2.1,2.1,0,0,0,1.16-.27.86.86,0,0,0,.41-.76v0a.94.94,0,0,0-.09-.41.87.87,0,0,0-.33-.33,3.44,3.44,0,0,0-.67-.31q-.43-.16-1.12-.33a13.5,13.5,0,0,1-1.5-.45,4.23,4.23,0,0,1-1.14-.62,2.48,2.48,0,0,1-.73-.91,3.17,3.17,0,0,1-.26-1.36v0a3.17,3.17,0,0,1,.28-1.35,3.08,3.08,0,0,1,.78-1,3.52,3.52,0,0,1,1.2-.67,4.83,4.83,0,0,1,1.54-.23,6.53,6.53,0,0,1,2.21.36,6.4,6.4,0,0,1,1.85,1l-1.25,1.81a8,8,0,0,0-1.44-.79,3.67,3.67,0,0,0-1.4-.29,1.69,1.69,0,0,0-1.05.27.83.83,0,0,0-.35.68v0a1,1,0,0,0,.1.46.92.92,0,0,0,.37.35,3.43,3.43,0,0,0,.73.3l1.17.33a11.2,11.2,0,0,1,1.48.49,4.11,4.11,0,0,1,1.09.66,2.49,2.49,0,0,1,.67.9,3,3,0,0,1,.23,1.23v0A3.38,3.38,0,0,1,7212.79,7212.73Z" transform="translate(-7113.99 -7165.89)" />
<path class="cls-3" d="M7214.4,7214.52v-10.92h2.4v10.92Z" transform="translate(-7113.99 -7165.89)" />
<path class="cls-3" d="M7226.3,7214.52l-5.29-6.94v6.94h-2.37v-10.92h2.22l5.12,6.72v-6.72h2.37v10.92Z" transform="translate(-7113.99 -7165.89)" />
<path class="cls-3" d="M7230.08,7214.52v-10.92h8.22v2.14h-5.85v2.22h5.15v2.14h-5.15v2.29h5.93v2.14Z" transform="translate(-7113.99 -7165.89)" />
<path class="cls-3" d="M7247.24,7212.73a3,3,0,0,1-.82,1.06,3.7,3.7,0,0,1-1.26.66,5.48,5.48,0,0,1-1.62.23,7.23,7.23,0,0,1-2.45-.43,6.47,6.47,0,0,1-2.18-1.32l1.42-1.7a7.13,7.13,0,0,0,1.54,1,4.09,4.09,0,0,0,1.72.36,2.1,2.1,0,0,0,1.16-.27.86.86,0,0,0,.41-.76v0a.94.94,0,0,0-.09-.41.87.87,0,0,0-.33-.33,3.44,3.44,0,0,0-.67-.31q-.43-.16-1.12-.33a13.5,13.5,0,0,1-1.5-.45,4.23,4.23,0,0,1-1.14-.62,2.48,2.48,0,0,1-.73-.91,3.17,3.17,0,0,1-.26-1.36v0a3.17,3.17,0,0,1,.28-1.35,3.08,3.08,0,0,1,.78-1,3.52,3.52,0,0,1,1.2-.67,4.83,4.83,0,0,1,1.54-.23,6.53,6.53,0,0,1,2.21.36,6.4,6.4,0,0,1,1.85,1l-1.25,1.81a8,8,0,0,0-1.44-.79,3.67,3.67,0,0,0-1.4-.29,1.69,1.69,0,0,0-1.05.27.83.83,0,0,0-.35.68v0a1,1,0,0,0,.1.46.92.92,0,0,0,.37.35,3.43,3.43,0,0,0,.73.3l1.17.33a11.2,11.2,0,0,1,1.48.49,4.11,4.11,0,0,1,1.09.66,2.49,2.49,0,0,1,.67.9,3,3,0,0,1,.23,1.23v0A3.38,3.38,0,0,1,7247.24,7212.73Z" transform="translate(-7113.99 -7165.89)" />
<path class="cls-3" d="M7256.34,7212.73a3,3,0,0,1-.82,1.06,3.7,3.7,0,0,1-1.26.66,5.48,5.48,0,0,1-1.62.23,7.23,7.23,0,0,1-2.45-.43,6.47,6.47,0,0,1-2.18-1.32l1.42-1.7a7.13,7.13,0,0,0,1.54,1,4.09,4.09,0,0,0,1.72.36,2.1,2.1,0,0,0,1.16-.27.86.86,0,0,0,.41-.76v0a.94.94,0,0,0-.09-.41.87.87,0,0,0-.33-.33,3.44,3.44,0,0,0-.67-.31q-.43-.16-1.12-.33a13.5,13.5,0,0,1-1.5-.45,4.23,4.23,0,0,1-1.14-.62,2.48,2.48,0,0,1-.73-.91,3.17,3.17,0,0,1-.26-1.36v0a3.17,3.17,0,0,1,.28-1.35,3.08,3.08,0,0,1,.78-1,3.52,3.52,0,0,1,1.2-.67,4.83,4.83,0,0,1,1.54-.23,6.53,6.53,0,0,1,2.21.36,6.4,6.4,0,0,1,1.85,1l-1.25,1.81a8,8,0,0,0-1.44-.79,3.67,3.67,0,0,0-1.4-.29,1.69,1.69,0,0,0-1.05.27.83.83,0,0,0-.35.68v0a1,1,0,0,0,.1.46.92.92,0,0,0,.37.35,3.43,3.43,0,0,0,.73.3l1.17.33a11.2,11.2,0,0,1,1.48.49,4.11,4.11,0,0,1,1.09.66,2.49,2.49,0,0,1,.67.9,3,3,0,0,1,.23,1.23v0A3.38,3.38,0,0,1,7256.34,7212.73Z" transform="translate(-7113.99 -7165.89)" /></svg>